<?xml version="1.0" standalone="no"?>
<!DOCTYPE svg PUBLIC "-//W3C//DTD SVG 20010904//EN"
 "http://www.w3.org/TR/2001/REC-SVG-20010904/DTD/svg10.dtd">
<svg version="1.0" xmlns="http://www.w3.org/2000/svg"
 width="512.000000pt" height="512.000000pt" viewBox="0 0 512.000000 512.000000"
 preserveAspectRatio="xMidYMid meet">
<metadata>
Created by potrace 1.14, written by Peter Selinger 2001-2017
</metadata>
<g transform="translate(0.000000,512.000000) scale(0.100000,-0.100000)"
fill="#000000" stroke="none">
<path d="M1138 5104 c-4 -3 -12 -7 -20 -8 -64 -11 -207 -127 -304 -248 -22
-27 -112 -183 -119 -205 -3 -13 -11 -23 -17 -23 -6 0 -8 -3 -5 -7 4 -3 0 -16
-8 -29 -8 -12 -16 -34 -19 -48 -3 -14 -8 -31 -13 -38 -4 -7 -8 -17 -10 -23 -1
-5 -11 -44 -22 -85 -11 -41 -22 -88 -25 -105 -2 -16 -5 -30 -6 -30 -6 0 -4
-228 2 -231 4 -3 5 -11 1 -19 -3 -8 -1 -15 3 -15 5 0 10 -21 11 -46 1 -26 5
-50 10 -53 4 -3 9 -19 10 -35 1 -16 6 -32 11 -35 4 -3 7 -16 6 -28 -1 -13 3
-23 9 -23 6 0 8 -3 4 -6 -3 -3 3 -26 13 -50 11 -24 17 -44 13 -44 -3 0 1 -8
10 -17 8 -10 16 -22 17 -28 3 -18 49 -106 84 -158 33 -49 130 -157 141 -157 3
0 13 -8 24 -17 39 -37 68 -56 133 -88 62 -30 104 -46 112 -42 1 1 10 -4 18
-11 9 -7 32 -13 52 -14 20 -1 39 -5 42 -10 3 -4 10 -6 15 -3 5 4 44 -11 87
-33 42 -22 118 -54 167 -73 58 -22 103 -46 128 -69 37 -34 188 -120 211 -120
7 0 23 -5 37 -12 l25 -12 -14 -55 c-8 -31 -15 -71 -15 -88 0 -18 -3 -33 -6
-33 -11 0 -4 -229 7 -243 5 -6 12 -23 14 -37 1 -14 8 -28 13 -32 6 -4 10 -12
10 -17 0 -6 18 -29 40 -53 23 -24 40 -49 39 -55 -1 -7 -2 -17 -3 -22 -2 -14
-125 10 -196 40 -16 7 -33 13 -36 13 -22 3 -135 85 -178 128 -86 86 -169 228
-202 341 -7 26 -17 47 -21 47 -4 0 -8 6 -8 13 0 16 -57 50 -70 42 -6 -3 -10
-2 -10 4 0 7 -28 8 -37 1 -2 -2 -6 -3 -11 -4 -4 0 -20 -11 -34 -22 -33 -26
-46 -89 -28 -136 57 -151 121 -274 190 -362 40 -53 152 -158 202 -189 63 -41
173 -96 203 -101 20 -4 38 -10 73 -22 21 -8 66 -15 110 -16 46 -2 17 -18 -37
-21 -23 -1 -41 -5 -41 -9 0 -4 -11 -3 -25 2 -17 7 -25 6 -25 -1 0 -8 -4 -8
-14 0 -10 8 -16 9 -21 1 -3 -6 -11 -8 -16 -4 -5 3 -35 7 -67 10 -31 2 -70 7
-87 10 -16 4 -37 9 -45 10 -8 1 -22 4 -30 7 -8 2 -32 7 -53 12 -20 4 -40 11
-43 16 -3 5 -10 7 -15 4 -5 -4 -9 -1 -9 5 0 6 -4 9 -8 6 -4 -2 -29 6 -55 19
-26 14 -47 22 -47 19 0 -3 -6 0 -12 6 -7 6 -44 31 -83 55 -71 45 -110 54 -158
36 -51 -20 -78 -103 -49 -151 19 -32 63 -70 80 -70 6 0 12 -4 12 -9 0 -7 172
-96 235 -121 180 -73 393 -100 587 -75 51 7 94 11 96 10 1 -1 -28 -16 -66 -33
-83 -37 -210 -74 -259 -75 -13 -1 -23 -3 -23 -6 0 -9 -223 -7 -237 2 -6 4 -14
3 -18 -3 -4 -6 -12 -7 -18 -3 -7 4 -21 9 -32 10 -52 8 -110 20 -110 23 0 1
-19 4 -43 6 -52 6 -96 -17 -114 -60 -14 -34 -17 -86 -5 -86 4 0 7 -5 7 -10 0
-57 198 -106 431 -108 150 -1 222 9 379 55 53 15 65 20 110 43 30 15 48 12 26
-5 -11 -8 -17 -15 -13 -15 4 0 -5 -13 -20 -28 -138 -138 -343 -236 -495 -235
-21 0 -38 -4 -38 -9 0 -5 -5 -6 -11 -2 -21 12 -110 5 -125 -11 -9 -8 -19 -13
-23 -11 -14 9 -40 -68 -35 -104 5 -38 59 -94 81 -86 7 3 15 2 17 -3 10 -16
221 -2 296 20 25 7 53 14 63 16 28 5 172 67 175 75 2 4 10 8 18 8 8 0 14 5 14
10 0 6 5 10 10 10 12 0 104 66 146 105 33 31 44 32 45 3 0 -13 2 -32 4 -43 2
-11 9 -48 16 -82 6 -35 10 -64 8 -65 -1 -2 3 -14 10 -26 7 -13 15 -36 17 -50
7 -39 95 -212 107 -212 14 0 -18 -29 -71 -63 -56 -37 -179 -153 -217 -207 -16
-23 -37 -50 -45 -59 -36 -39 -118 -241 -106 -260 4 -5 3 -12 -2 -15 -5 -3 -10
-31 -11 -62 l-2 -57 48 6 c26 3 102 29 168 57 226 96 345 131 452 134 29 0 53
5 53 9 0 5 4 6 8 3 8 -5 47 -13 102 -21 14 -3 36 -7 50 -11 14 -3 34 -7 45 -7
11 -1 22 -4 25 -7 12 -12 62 -30 71 -25 5 4 9 1 9 -4 0 -6 7 -11 15 -11 8 0
23 -4 33 -10 42 -24 271 -110 293 -110 47 0 50 9 35 112 -11 77 -79 248 -99
248 -6 0 -8 3 -4 6 3 4 1 12 -6 20 -26 29 -37 43 -37 49 0 18 -125 142 -200
198 -30 23 -58 46 -62 52 -4 5 -8 6 -8 2 0 -4 -12 3 -26 17 l-27 24 20 29 c50
70 113 256 129 378 14 106 15 107 48 72 14 -15 29 -27 35 -27 5 0 11 -4 13 -8
5 -12 113 -92 125 -92 6 0 16 -7 23 -15 7 -8 16 -12 21 -9 5 3 9 0 9 -6 0 -6
4 -9 9 -6 5 3 14 -1 21 -9 7 -8 21 -15 31 -15 11 0 19 -4 19 -8 0 -5 6 -9 13
-10 6 0 37 -8 67 -17 73 -21 98 -27 140 -30 19 -2 35 -4 35 -5 0 -7 133 -6
147 1 10 5 19 5 22 0 16 -24 105 43 107 80 1 11 2 25 3 32 4 24 -27 74 -54 90
-19 11 -60 18 -126 22 -125 6 -120 5 -179 20 -122 31 -250 101 -335 185 -23
22 -45 40 -50 40 -6 0 -10 7 -10 15 0 8 -4 15 -10 15 -5 0 -10 6 -10 14 0 12
7 11 38 -4 33 -17 62 -29 85 -35 4 -2 9 -4 12 -5 3 -1 8 -3 13 -4 4 -1 16 -5
27 -9 11 -3 32 -9 48 -12 15 -3 37 -7 50 -10 92 -20 140 -23 272 -20 83 1 159
5 170 8 11 2 40 8 65 13 52 9 43 7 97 22 41 12 98 65 88 82 -3 5 -1 11 5 15 6
4 7 12 3 18 -4 7 -8 18 -9 25 -4 26 -36 63 -62 73 -23 9 -83 5 -127 -7 -20 -6
-71 -16 -87 -17 -10 -1 -18 -4 -18 -7 0 -3 -60 -4 -133 -3 -121 1 -172 5 -234
19 -13 2 -25 4 -28 4 -11 0 -153 53 -190 71 l-40 19 90 -7 c277 -19 466 14
691 122 28 14 56 25 61 25 6 0 13 7 17 15 3 8 12 15 21 15 8 0 15 5 15 10 0 6
4 10 10 10 5 0 28 12 49 28 97 67 81 181 -30 212 -20 6 -40 2 -75 -16 -26 -13
-50 -28 -54 -32 -3 -4 -20 -15 -38 -25 -17 -9 -44 -24 -59 -32 -62 -33 -179
-75 -187 -68 -3 4 -6 2 -6 -3 0 -5 -10 -11 -22 -12 -37 -4 -52 -7 -64 -14 -6
-4 -21 -6 -32 -3 -12 2 -24 0 -27 -4 -2 -5 -16 -7 -30 -6 -14 2 -27 -1 -31 -6
-3 -5 -10 -6 -17 -2 -17 10 -57 10 -57 -1 0 -6 -5 -5 -12 2 -8 8 -17 8 -31 1
-11 -6 -17 -7 -14 -2 3 5 -15 10 -41 11 -71 2 -82 5 -75 15 3 5 16 7 29 4 13
-2 24 0 24 4 0 5 3 8 8 7 4 -1 27 2 52 7 25 5 48 8 53 7 4 -1 7 2 7 6 0 4 10
8 22 9 26 2 208 93 208 104 0 4 8 10 18 13 24 8 133 116 185 184 50 65 127
197 127 218 0 8 3 14 8 14 4 0 12 17 19 38 6 20 17 51 24 67 32 78 4 158 -58
170 -10 2 -19 4 -20 5 -10 8 -43 1 -71 -14 -30 -15 -50 -45 -58 -86 -2 -8 -8
-16 -14 -18 -5 -2 -7 -8 -4 -13 3 -6 -2 -21 -10 -34 -9 -14 -14 -25 -11 -25 8
0 -36 -84 -47 -91 -5 -3 -9 -8 -7 -10 5 -8 -50 -85 -92 -129 -23 -25 -42 -48
-41 -52 1 -5 -4 -8 -12 -8 -8 0 -16 -7 -20 -15 -3 -8 -12 -15 -21 -15 -8 0
-15 -3 -15 -7 0 -8 -67 -44 -140 -76 -42 -18 -180 -48 -192 -41 -16 10 -1 45
34 82 31 32 52 69 48 81 -1 2 3 7 9 11 11 6 16 21 28 85 10 52 9 70 -1 84 -8
11 -8 13 1 8 8 -5 10 2 8 25 -2 18 -4 33 -5 33 -1 0 -3 11 -4 25 -4 42 -21
143 -32 195 -4 17 -4 27 0 23 4 -3 23 0 42 8 19 8 34 11 34 7 0 -5 4 -3 8 2 4
6 35 23 70 40 35 16 82 47 105 68 23 22 60 46 82 53 45 16 101 40 127 54 10 6
22 10 27 10 5 0 36 15 69 34 33 19 62 32 65 30 2 -2 25 2 50 10 26 8 47 12 47
11 0 -2 15 2 34 10 18 8 36 11 40 8 3 -4 6 -1 6 5 0 7 7 12 15 12 17 0 134 59
153 77 7 7 17 13 21 13 14 0 139 126 178 180 41 56 106 170 97 170 -2 0 2 10
10 23 14 21 72 186 82 232 27 123 32 175 29 276 -3 97 -24 244 -40 268 -2 4
-6 18 -8 32 -13 67 -108 268 -170 359 -91 131 -205 234 -312 280 -62 26 -64
26 -54 -15 5 -19 13 -52 19 -72 24 -94 33 -303 17 -398 -13 -79 -18 -100 -26
-105 -5 -3 -7 -12 -6 -21 3 -16 0 -24 -49 -132 -14 -32 -26 -62 -26 -67 0 -6
-4 -10 -10 -10 -5 0 -10 -6 -10 -13 0 -7 -8 -22 -18 -33 -10 -10 -21 -27 -25
-36 -3 -10 -14 -18 -23 -18 -10 0 -14 3 -11 6 4 4 -1 14 -11 23 -29 26 -87
102 -121 157 -36 59 -84 184 -70 184 5 0 5 10 1 23 -7 20 -8 42 -2 60 1 4 4
12 5 17 1 6 3 11 5 13 7 9 6 37 -2 37 -12 0 -44 -17 -70 -38 -26 -21 -126
-121 -153 -153 -27 -32 -106 -154 -134 -206 -28 -54 -71 -180 -63 -187 3 -3 1
-6 -4 -6 -11 0 -13 -20 -15 -130 -1 -41 5 -95 12 -120 7 -25 13 -48 15 -52 1
-5 2 -9 4 -10 1 -2 3 -12 5 -22 2 -10 7 -22 12 -25 4 -3 15 -19 22 -34 17 -31
132 -157 144 -157 4 0 20 -11 35 -25 15 -14 32 -25 39 -25 7 0 13 -4 13 -8 0
-5 17 -17 38 -26 28 -13 40 -26 49 -54 6 -20 14 -44 18 -53 4 -11 -3 -26 -17
-40 -13 -13 -48 -53 -79 -89 -30 -36 -62 -67 -70 -68 -8 -2 -50 -5 -94 -7 -44
-2 -80 -4 -80 -5 0 -2 -25 -7 -72 -13 -21 -3 -58 -13 -82 -22 -24 -8 -45 -14
-46 -13 -14 22 -52 76 -60 85 -30 36 -35 43 -35 49 0 3 -11 15 -24 25 -17 14
-23 26 -20 42 13 60 15 126 5 164 -13 46 -55 103 -77 103 -8 0 -14 4 -14 9 0
10 -46 6 -83 -8 l-27 -11 6 43 c3 23 8 56 10 72 3 31 12 81 20 125 3 14 7 39
10 55 5 25 19 87 39 165 2 8 4 15 5 15 1 0 3 7 5 15 2 8 6 24 9 35 8 34 46
149 55 170 77 165 105 221 112 223 5 2 9 8 9 14 0 15 82 128 93 128 6 0 8 3 5
6 -5 4 57 70 112 118 65 56 206 124 268 128 6 1 12 5 12 9 0 4 6 7 13 6 46 -1
71 6 96 31 26 25 29 34 20 72 -6 24 -40 47 -68 45 -52 -4 -121 -17 -121 -24 0
-3 -11 -7 -24 -7 -30 -2 -148 -53 -163 -71 -6 -8 -14 -13 -18 -12 -31 8 -285
-223 -285 -260 0 -5 -4 -11 -8 -13 -12 -5 -70 -92 -82 -122 -5 -14 -15 -26
-21 -26 -7 0 -10 -3 -6 -6 3 -3 -5 -27 -18 -53 -20 -39 -43 -91 -50 -111 -1
-3 -7 -18 -14 -35 -7 -16 -14 -37 -16 -45 -2 -8 -8 -28 -15 -45 -6 -16 -11
-32 -12 -35 0 -3 -6 -20 -13 -37 -8 -18 -12 -33 -10 -33 2 0 -1 -15 -7 -32
-11 -36 -18 -73 -21 -103 -1 -11 -6 -23 -10 -26 -4 -3 -9 -22 -10 -42 -1 -21
-4 -37 -7 -37 -4 0 -6 -10 -7 -22 0 -13 -3 -36 -6 -53 -6 -33 -17 -100 -23
-143 -2 -15 -6 -61 -9 -102 -4 -41 -9 -78 -11 -82 -8 -13 -64 -9 -65 5 -1 6
-3 30 -5 52 -1 22 -5 58 -8 80 -3 22 -8 58 -11 80 -2 22 -8 56 -11 75 -3 19
-8 46 -10 60 -3 14 -10 50 -16 80 -6 30 -13 62 -14 70 -9 44 -16 77 -21 90 -4
8 -5 19 -4 24 1 4 -3 14 -9 20 -5 7 -7 16 -3 19 3 4 1 12 -4 19 -8 10 -34 89
-38 118 -1 3 -9 22 -18 44 -9 21 -17 40 -17 43 0 20 -148 292 -170 313 -3 3
-17 21 -31 40 -38 50 -127 141 -174 175 -22 17 -43 34 -47 40 -5 7 -8 7 -8 0
0 -7 -3 -7 -8 0 -14 20 -144 86 -172 88 -11 1 -20 4 -20 8 0 6 -18 10 -105 26
-63 11 -81 9 -104 -13 -48 -48 -13 -118 65 -127 22 -3 53 -10 71 -15 17 -6 34
-8 37 -4 3 3 6 0 6 -6 0 -7 7 -12 15 -12 18 0 109 -42 113 -52 2 -5 10 -8 18
-8 8 0 14 -4 14 -10 0 -5 5 -10 10 -10 10 0 45 -29 104 -85 68 -64 149 -181
203 -296 61 -128 69 -146 103 -254 31 -96 39 -126 44 -171 1 -11 5 -24 8 -30
11 -19 28 -106 32 -161 0 -13 3 -23 7 -23 3 0 6 -10 7 -22 1 -13 3 -39 4 -58
2 -19 6 -40 11 -47 4 -6 3 -14 -3 -18 -6 -4 -7 -12 -3 -18 18 -30 10 -35 -29
-17 -32 14 -47 16 -72 8 -42 -14 -85 -60 -89 -95 -2 -16 -6 -33 -9 -38 -6 -12
-4 -58 7 -133 7 -50 6 -55 -22 -85 -17 -18 -44 -53 -62 -79 -18 -27 -34 -48
-37 -48 -3 0 -18 7 -34 15 -17 9 -30 13 -30 11 0 -3 -14 -1 -32 4 -40 12 -102
22 -154 24 -22 1 -45 6 -52 10 -7 4 -12 3 -12 -1 0 -21 -66 -3 -90 24 -111
128 -125 146 -126 174 -1 16 3 29 9 29 5 0 7 7 3 15 -3 8 -1 15 4 15 6 0 9 5
8 11 -2 6 6 16 16 22 21 13 113 72 152 98 13 9 21 19 17 22 -3 4 -1 7 5 7 14
0 72 59 72 72 0 5 4 7 9 4 11 -7 86 145 97 194 4 19 8 49 8 65 1 17 5 36 9 43
5 6 5 12 0 12 -4 0 -9 19 -9 43 -1 37 -9 103 -15 117 -1 3 -1 8 0 13 0 4 -4 7
-10 7 -5 0 -7 5 -4 10 4 6 2 16 -3 23 -6 7 -10 14 -10 17 -1 3 -5 16 -10 30
-5 14 -10 27 -9 30 0 8 -83 143 -101 163 -8 9 -12 17 -9 17 9 0 -6 17 -116
133 -51 53 -99 97 -105 97 -7 0 -12 5 -12 10 0 6 -9 10 -20 10 -20 0 -28 -24
-11 -35 8 -4 9 -150 2 -150 -2 0 -4 -7 -6 -16 -1 -9 -12 -36 -22 -60 -11 -24
-20 -48 -20 -53 -1 -5 -5 -12 -10 -15 -4 -3 -21 -26 -38 -49 -16 -24 -46 -63
-67 -85 -21 -23 -38 -45 -38 -49 0 -19 -28 -5 -41 20 -8 15 -16 29 -19 32 -14
13 -70 132 -90 190 -12 36 -25 72 -28 80 -5 16 -9 34 -14 65 -2 11 -6 25 -9
30 -3 6 -5 31 -5 58 1 26 -3 47 -8 47 -5 0 -3 6 3 14 9 11 9 15 -1 19 -8 4 -9
8 -3 14 6 4 11 46 12 93 0 47 4 96 7 110 3 14 8 35 10 48 3 12 7 25 9 30 3 4
8 24 11 45 5 34 -1 46 -16 31z"/>
</g>
</svg>
